<svg xmlns="http://www.w3.org/2000/svg" viewBox="0 0 1000 1000"><rect rx="220" fill="#1B4A3B"/><g transform="translate(129.21 200.00) scale(1.221101)" fill="#EFE9DC"><path d="M388.57 380.13C366.42 384.8 340.67 387.15 311.24 387.15C275.35 387.15 244.99 382.56 220.14 373.35C195.3 364.15 176.43 349.78 163.56 330.22C150.67 310.67 144.23 285.25 144.23 253.96L144.23 237.4C144.23 215.31 148.25 195.99 156.31 179.43C164.35 162.87 176.2 148.95 191.85 137.68C207.48 126.41 226.36 118.01 248.44 112.48C270.52 106.96 295.37 104.2 322.97 104.2C342.29 104.2 360.69 105.7 378.18 108.69C381.56 109.27 384.81 109.95 388.05 110.65C401.58 113.53 413.97 117.33 425.11 122.15C438.91 128.13 449.83 135.84 457.89 145.27C465.93 154.7 469.96 165.86 469.96 178.73L475.77 178.73L606.6 178.73C606.6 148.83 599.36 122.73 584.87 100.41C570.37 78.1 549.9 59.59 523.45 44.86C496.99 30.14 466.17 18.98 430.97 11.39C395.78 3.79 357.7 0 316.76 0C304.28 0 292.25 0.43 280.44 1.09C260.69 2.18 241.78 4.09 223.9 7.01C195.71 11.61 169.84 18.47 146.3 27.61C98.91 46.01 62.68 73.5 37.61 110.07C12.53 146.65 0 191.85 0 245.68C0 328.49 24.03 390.15 72.12 430.63C107.37 460.32 155.6 479.07 216.71 486.99C288.75 460.87 348.23 423.98 388.57 380.13Z"/><path d="M490.19 218.07L486.18 218.07L349.83 218.07L349.83 308.48L477.29 308.48C450.87 382.85 378.48 447.33 278.32 491.22C281.69 491.27 285.03 491.36 288.46 491.36C319.75 491.36 348.96 489.05 376.11 484.46C403.25 479.86 428.21 472.72 450.99 463.06C473.76 453.4 494.12 441.22 512.06 426.49L525.17 483.08L607.3 483.08L607.3 218.07L490.19 218.07Z"/></g></svg>
